<?xml version="1.0" encoding="UTF-8" standalone="no"?>
<!DOCTYPE svg PUBLIC "-//W3C//DTD SVG 1.1//EN" "http://www.w3.org/Graphics/SVG/1.1/DTD/svg11.dtd">
<svg xmlns="http://www.w3.org/2000/svg" version="1.1" viewBox="0 0 500 500">
  <path fill="#a7a7a7"
    d="
  M 275.36 139.68
  L 282.42 150.92
  A 0.38 0.38 0.0 0 1 282.10 151.50
  L 228.56 151.50
  A 0.38 0.38 0.0 0 1 228.24 150.91
  L 235.87 139.67
  A 0.38 0.38 0.0 0 1 236.18 139.50
  L 275.04 139.50
  A 0.38 0.38 0.0 0 1 275.36 139.68
  Z
  M 262.4905 142.9056
  A 0.69 0.69 0.0 0 0 261.7981 142.2180
  L 249.1982 142.2620
  A 0.69 0.69 0.0 0 0 248.5106 142.9544
  L 248.5295 148.3544
  A 0.69 0.69 0.0 0 0 249.2219 149.0420
  L 261.8218 148.9980
  A 0.69 0.69 0.0 0 0 262.5094 148.3056
  L 262.4905 142.9056
  Z"
  />
  <path fill="#a7a7a7"
    d="
  M 302.39 144.75
  L 318.00 144.75
  A 0.47 0.47 0.0 0 1 318.44 145.05
  L 320.74 150.86
  A 0.47 0.47 0.0 0 1 320.31 151.50
  L 299.95 151.50
  A 0.47 0.47 0.0 0 1 299.51 150.85
  L 301.96 145.04
  A 0.47 0.47 0.0 0 1 302.39 144.75
  Z"
  />
  <path fill="#a7a7a7"
    d="
  M 196.44 147.00
  L 207.85 147.00
  A 0.52 0.52 0.0 0 1 208.36 147.40
  L 209.20 150.86
  A 0.52 0.52 0.0 0 1 208.70 151.50
  L 195.49 151.50
  A 0.52 0.52 0.0 0 1 194.99 150.84
  L 195.94 147.38
  A 0.52 0.52 0.0 0 1 196.44 147.00
  Z"
  />
  <path fill="#a7a7a7"
    d="
  M 238.71 186.71
  C 217.29 186.87 195.91 186.62 174.52 186.46
  A 0.50 0.50 0.0 0 1 174.02 185.96
  Q 174.00 177.77 173.99 169.59
  C 173.99 159.58 178.23 153.29 189.31 153.28
  Q 254.15 153.22 319.00 153.31
  C 331.76 153.32 337.51 156.70 337.51 170.15
  Q 337.51 178.20 337.46 186.25
  A 0.50 0.50 0.0 0 1 336.96 186.75
  L 301.51 186.75
  A 1.07 1.05 -16.2 0 1 300.62 186.27
  C 287.17 165.32 258.27 162.64 242.45 182.62
  Q 241.00 184.46 239.53 186.31
  A 1.04 1.03 18.7 0 1 238.71 186.71
  Z"
  />
  <ellipse fill="#a7a7a7" cx="0.00" cy="0.00" transform="translate(270.19,205.24) rotate(90.6)"
    rx="23.02" ry="22.73" />
  <path fill="#a7a7a7"
    d="
  M 248.65 234.14
  C 266.55 247.58 291.43 241.59 301.79 222.15
  Q 309.40 207.86 303.10 190.88
  A 0.47 0.46 -10.0 0 1 303.54 190.26
  L 336.75 190.25
  A 0.75 0.75 0.0 0 1 337.50 191.00
  Q 337.50 216.27 337.50 240.92
  C 337.51 252.39 333.66 258.24 321.76 258.24
  Q 256.53 258.25 191.30 258.26
  C 178.51 258.26 173.97 253.64 173.99 240.98
  Q 174.04 215.90 173.96 191.26
  A 1.01 1.01 0.0 0 1 174.97 190.25
  L 237.02 190.25
  A 0.46 0.45 -78.8 0 1 237.44 190.88
  C 231.20 206.06 235.31 224.13 248.65 234.14
  Z"
  />
  <path fill="#a7a7a7"
    d="
  M 149.97 337.19
  C 149.91 341.20 155.40 343.42 158.24 340.97
  C 161.07 338.54 160.40 331.31 160.15 327.88
  A 0.61 0.60 88.9 0 0 159.57 327.32
  L 156.35 327.22
  A 0.62 0.62 0.0 0 1 155.75 326.60
  L 155.75 323.87
  A 0.62 0.62 0.0 0 1 156.37 323.25
  L 163.95 323.25
  A 0.51 0.50 88.8 0 1 164.45 323.74
  C 164.63 329.21 165.44 338.51 162.45 342.72
  C 159.14 347.37 149.87 347.33 146.92 341.83
  Q 145.86 339.85 145.71 335.34
  Q 145.43 326.59 145.57 313.77
  Q 145.68 304.48 153.38 303.37
  C 162.73 302.03 165.00 309.28 164.47 316.85
  A 0.51 0.50 2.9 0 1 163.94 317.32
  L 160.83 317.23
  A 0.61 0.60 90.0 0 1 160.25 316.64
  Q 160.14 312.87 159.97 311.51
  C 159.20 305.32 150.33 305.70 150.25 313.70
  Q 150.14 325.45 149.97 337.19
  Z"
  />
  <path fill="#a7a7a7"
    d="
  M 217.67 330.30
  C 219.83 329.71 218.13 339.95 217.67 340.98
  C 214.70 347.65 203.55 348.03 200.69 341.04
  C 198.50 335.71 199.72 323.51 199.72 317.45
  C 199.72 309.66 200.72 302.44 210.22 303.28
  C 217.84 303.96 219.31 310.66 218.55 316.98
  A 0.59 0.58 -86.7 0 1 217.97 317.50
  L 214.88 317.50
  A 0.54 0.54 0.0 0 1 214.34 317.00
  C 214.17 314.25 214.94 309.50 211.76 307.89
  C 208.39 306.20 204.37 308.29 204.31 312.31
  Q 204.15 324.50 204.31 336.68
  C 204.38 341.87 210.83 344.15 213.43 339.77
  C 214.71 337.61 214.26 333.79 214.26 331.10
  A 0.78 0.77 83.7 0 1 214.85 330.36
  Q 215.97 330.10 217.20 330.32
  Q 217.44 330.37 217.67 330.30
  Z"
  />
  <path fill="#a7a7a7"
    d="
  M 241.90 337.10
  A 8.88 8.88 0.0 0 1 233.02 345.98
  L 231.64 345.98
  A 8.88 8.88 0.0 0 1 222.76 337.10
  L 222.76 312.14
  A 8.88 8.88 0.0 0 1 231.64 303.26
  L 233.02 303.26
  A 8.88 8.88 0.0 0 1 241.90 312.14
  L 241.90 337.10
  Z
  M 237.2865 312.1825
  A 4.85 4.85 0.0 0 0 232.4196 307.3495
  L 232.0596 307.3507
  A 4.85 4.85 0.0 0 0 227.2266 312.2176
  L 227.3135 337.1175
  A 4.85 4.85 0.0 0 0 232.1804 341.9505
  L 232.5404 341.9493
  A 4.85 4.85 0.0 0 0 237.3734 337.0824
  L 237.2865 312.1825
  Z"
  />
  <path fill="#a7a7a7"
    d="
  M 316.50 336.50
  C 316.51 343.46 325.97 343.45 326.34 338.18
  Q 326.69 333.03 326.41 327.76
  A 0.54 0.54 0.0 0 0 325.87 327.25
  L 322.88 327.25
  A 0.63 0.63 0.0 0 1 322.25 326.62
  L 322.25 323.88
  A 0.63 0.63 0.0 0 1 322.88 323.25
  L 330.19 323.25
  A 0.65 0.65 0.0 0 1 330.84 323.87
  C 331.10 328.66 331.35 336.58 330.25 340.19
  C 327.98 347.66 316.66 348.04 313.30 341.52
  Q 312.02 339.02 312.01 333.16
  Q 311.98 323.08 312.01 313.01
  Q 312.04 304.51 319.44 303.38
  C 328.89 301.94 331.29 308.85 330.84 316.62
  A 0.64 0.64 0.0 0 1 330.22 317.23
  L 327.04 317.32
  A 0.50 0.49 88.9 0 1 326.53 316.82
  C 326.54 312.83 327.01 307.44 321.79 307.37
  C 316.93 307.29 316.51 311.20 316.50 315.27
  Q 316.49 325.88 316.50 336.50
  Z"
  />
  <path fill="#a7a7a7"
    d="
  M 358.68 314.16
  C 359.10 305.60 349.17 304.81 348.86 312.76
  C 348.44 323.80 365.28 324.06 362.83 338.52
  C 360.82 350.34 342.83 348.47 344.20 333.98
  A 0.72 0.72 0.0 0 1 344.89 333.33
  L 347.83 333.23
  A 0.63 0.63 0.0 0 1 348.49 333.84
  C 348.66 337.83 348.42 342.18 353.72 341.89
  C 356.85 341.72 358.40 339.76 358.47 336.73
  C 358.76 325.40 342.82 325.57 344.58 311.27
  C 346.10 298.89 364.32 301.05 362.91 314.25
  A 0.57 0.57 0.0 0 1 362.34 314.76
  L 359.22 314.73
  A 0.55 0.55 0.0 0 1 358.68 314.16
  Z"
  />
  <path fill="#a7a7a7"
    d="
  M 386.22 337.01
  A 9.00 9.00 0.0 0 1 377.22 346.01
  L 376.00 346.01
  A 9.00 9.00 0.0 0 1 367.00 337.01
  L 367.00 312.23
  A 9.00 9.00 0.0 0 1 376.00 303.23
  L 377.22 303.23
  A 9.00 9.00 0.0 0 1 386.22 312.23
  L 386.22 337.01
  Z
  M 381.49 312.13
  A 4.82 4.82 0.0 0 0 376.67 307.31
  L 376.35 307.31
  A 4.82 4.82 0.0 0 0 371.53 312.13
  L 371.53 337.17
  A 4.82 4.82 0.0 0 0 376.35 341.99
  L 376.67 341.99
  A 4.82 4.82 0.0 0 0 381.49 337.17
  L 381.49 312.13
  Z"
  />
  <path fill="#a7a7a7"
    d="
  M 409.68 336.98
  A 8.98 8.98 0.0 0 1 400.70 345.96
  L 399.36 345.96
  A 8.98 8.98 0.0 0 1 390.38 336.98
  L 390.38 312.26
  A 8.98 8.98 0.0 0 1 399.36 303.28
  L 400.70 303.28
  A 8.98 8.98 0.0 0 1 409.68 312.26
  L 409.68 336.98
  Z
  M 404.97 312.14
  A 4.81 4.81 0.0 0 0 400.16 307.33
  L 399.84 307.33
  A 4.81 4.81 0.0 0 0 395.03 312.14
  L 395.03 337.16
  A 4.81 4.81 0.0 0 0 399.84 341.97
  L 400.16 341.97
  A 4.81 4.81 0.0 0 0 404.97 337.16
  L 404.97 312.14
  Z"
  />
  <rect fill="#a7a7a7" x="79.49" y="303.52" width="4.48" height="42.22" rx="0.48" />
  <path fill="#a7a7a7"
    d="
  M 92.50 345.80
  L 89.15 345.49
  A 0.35 0.35 0.0 0 1 88.83 345.14
  L 88.72 303.85
  A 0.35 0.35 0.0 0 1 89.07 303.50
  L 95.12 303.50
  A 0.35 0.35 0.0 0 1 95.47 303.78
  L 101.99 335.98
  A 0.35 0.35 0.0 0 0 102.68 335.98
  L 108.95 303.78
  A 0.35 0.35 0.0 0 1 109.30 303.50
  L 115.15 303.50
  A 0.35 0.35 0.0 0 1 115.50 303.85
  L 115.50 345.40
  A 0.35 0.35 0.0 0 1 115.15 345.75
  L 111.63 345.75
  A 0.35 0.35 0.0 0 1 111.28 345.40
  L 111.18 314.72
  A 0.35 0.35 0.0 0 0 110.49 314.66
  L 104.53 345.22
  A 0.35 0.35 0.0 0 1 104.18 345.50
  L 100.18 345.50
  A 0.35 0.35 0.0 0 1 99.83 345.22
  L 93.39 313.96
  A 0.35 0.35 0.0 0 0 92.70 314.03
  L 92.88 345.45
  A 0.35 0.35 0.0 0 1 92.50 345.80
  Z"
  />
  <path fill="#a7a7a7"
    d="
  M 124.93 337.70
  L 123.66 345.30
  A 0.54 0.54 0.0 0 1 123.13 345.75
  L 120.00 345.75
  A 0.54 0.54 0.0 0 1 119.47 345.11
  L 127.23 303.94
  A 0.54 0.54 0.0 0 1 127.76 303.50
  L 133.66 303.50
  A 0.54 0.54 0.0 0 1 134.19 303.94
  L 142.06 345.11
  A 0.54 0.54 0.0 0 1 141.52 345.75
  L 138.03 345.72
  A 0.54 0.54 0.0 0 1 137.51 345.29
  L 136.05 337.69
  A 0.54 0.54 0.0 0 0 135.52 337.25
  L 125.46 337.25
  A 0.54 0.54 0.0 0 0 124.93 337.70
  Z
  M 125.87 332.82
  A 0.38 0.38 0.0 0 0 126.25 333.27
  L 134.86 333.22
  A 0.38 0.38 0.0 0 0 135.23 332.77
  L 130.81 310.33
  A 0.38 0.38 0.0 0 0 130.06 310.34
  L 125.87 332.82
  Z"
  />
  <path fill="#a7a7a7"
    d="
  M 173.60 308.27
  L 173.46 321.71
  A 0.53 0.53 0.0 0 0 173.99 322.25
  L 183.47 322.25
  A 0.53 0.53 0.0 0 1 184.00 322.78
  L 184.00 325.72
  A 0.53 0.53 0.0 0 1 183.47 326.25
  L 174.03 326.25
  A 0.53 0.53 0.0 0 0 173.50 326.78
  L 173.50 341.05
  A 0.53 0.53 0.0 0 0 174.03 341.57
  L 185.78 341.47
  A 0.53 0.53 0.0 0 1 186.32 342.01
  L 186.23 345.23
  A 0.53 0.53 0.0 0 1 185.70 345.75
  L 169.57 345.75
  A 0.53 0.53 0.0 0 1 169.04 345.22
  L 168.98 304.03
  A 0.53 0.53 0.0 0 1 169.51 303.50
  L 185.83 303.50
  A 0.53 0.53 0.0 0 1 186.36 304.05
  L 186.22 307.24
  A 0.53 0.53 0.0 0 1 185.69 307.75
  L 174.13 307.75
  A 0.53 0.53 0.0 0 0 173.60 308.27
  Z"
  />
  <path fill="#a7a7a7"
    d="
  M 250.50 314.62
  L 250.50 344.93
  A 0.70 0.70 0.0 0 1 249.84 345.63
  L 247.16 345.79
  A 0.63 0.63 0.0 0 1 246.50 345.16
  L 246.50 304.12
  A 0.63 0.63 0.0 0 1 247.13 303.49
  L 252.61 303.52
  A 0.47 0.45 -5.2 0 1 253.07 303.89
  L 259.54 336.01
  A 0.42 0.42 0.0 0 0 260.36 336.00
  L 266.53 304.17
  A 0.83 0.82 -84.5 0 1 267.34 303.50
  L 272.64 303.50
  A 0.64 0.64 0.0 0 1 273.28 304.14
  L 273.18 345.03
  A 0.72 0.72 0.0 0 1 272.46 345.75
  L 269.38 345.75
  A 0.56 0.55 89.5 0 1 268.83 345.20
  Q 268.70 333.24 268.75 321.31
  C 268.75 319.77 269.23 317.15 268.72 315.02
  A 0.34 0.34 0.0 0 0 268.05 315.03
  L 262.17 344.80
  A 0.81 0.81 0.0 0 1 261.43 345.45
  L 258.30 345.66
  A 0.76 0.76 0.0 0 1 257.50 345.06
  L 251.17 314.55
  A 0.34 0.34 0.0 0 0 250.50 314.62
  Z"
  />
  <rect fill="#a7a7a7" x="-2.27" y="-21.10" transform="translate(280.46,324.62) rotate(0.1)"
    width="4.54" height="42.20" rx="0.57" />
  <path fill="#a7a7a7"
    d="
  M 302.78 332.73
  A 0.29 0.29 0.0 0 0 303.35 332.64
  L 303.21 304.27
  A 0.71 0.70 -0.4 0 1 303.92 303.56
  L 306.81 303.56
  A 0.69 0.68 0.0 0 1 307.50 304.24
  L 307.50 345.03
  A 0.66 0.65 -6.0 0 1 306.98 345.67
  Q 304.81 346.15 302.86 345.38
  A 1.04 1.04 0.0 0 1 302.25 344.73
  L 292.22 313.46
  Q 291.75 311.99 291.75 313.54
  L 291.75 345.13
  A 0.57 0.57 0.0 0 1 291.18 345.70
  L 288.19 345.70
  A 0.70 0.69 90.0 0 1 287.50 345.00
  L 287.50 304.11
  A 0.63 0.63 0.0 0 1 288.14 303.48
  L 292.94 303.56
  A 0.80 0.79 -8.4 0 1 293.70 304.12
  L 302.78 332.73
  Z"
  />
  <path fill="#a7a7a7"
    d="
  M 429.34 332.57
  A 0.34 0.34 0.0 0 0 430.00 332.47
  L 430.00 304.26
  A 0.70 0.69 -1.3 0 1 430.67 303.57
  L 433.35 303.48
  A 0.62 0.62 0.0 0 1 434.00 304.10
  L 434.00 345.14
  A 0.63 0.62 -89.1 0 1 433.36 345.77
  L 429.74 345.69
  A 0.76 0.75 -7.7 0 1 429.05 345.17
  Q 424.07 329.61 419.25 314.05
  C 419.13 313.69 418.97 313.58 418.71 313.33
  A 0.27 0.27 0.0 0 0 418.25 313.53
  L 418.25 345.13
  A 0.63 0.62 -0.0 0 1 417.62 345.75
  L 414.91 345.75
  A 0.65 0.65 0.0 0 1 414.26 345.10
  Q 414.24 330.07 414.25 315.07
  C 414.26 312.34 413.81 307.85 414.35 304.10
  A 0.71 0.71 0.0 0 1 415.05 303.49
  L 419.63 303.52
  A 0.63 0.61 -7.7 0 1 420.21 303.95
  L 429.34 332.57
  Z"
  />
</svg>