<?xml version="1.0" standalone="no"?>
<!DOCTYPE svg PUBLIC "-//W3C//DTD SVG 20010904//EN"
 "http://www.w3.org/TR/2001/REC-SVG-20010904/DTD/svg10.dtd">
<svg version="1.0" xmlns="http://www.w3.org/2000/svg"
 width="577.000000pt" height="433.000000pt" viewBox="0 0 577.000000 433.000000"
 preserveAspectRatio="xMidYMid meet">

<g transform="translate(0.000000,433.000000) scale(0.100000,-0.100000)"
fill="#000000" stroke="none">
<path d="M2319 3543 c-35 -38 -115 -121 -178 -186 l-114 -119 5 -136 c5 -143
18 -192 69 -247 17 -20 19 -44 21 -345 l3 -325 760 0 760 0 3 325 2 324 24 26
c46 48 59 96 64 238 l4 132 -38 43 c-21 23 -101 108 -178 190 l-140 147 -501
0 -501 0 -65 -67z m194 -56 c-10 -18 -47 -81 -83 -140 l-65 -107 -97 0 c-54 0
-98 3 -98 8 1 7 14 23 164 186 l80 86 58 0 58 0 -17 -33z m224 16 c-3 -10 -15
-73 -28 -140 l-23 -123 -108 0 c-87 0 -108 3 -108 14 0 8 4 17 9 20 5 4 26 37
47 74 21 37 53 91 71 120 l34 52 55 0 c48 0 55 -2 51 -17z m219 -20 c3 -21 15
-82 25 -136 10 -54 19 -100 19 -103 0 -6 -216 -5 -222 1 -3 3 42 245 51 273 1
1 28 2 61 2 l59 0 7 -37z m237 -25 c19 -35 53 -98 76 -140 l42 -78 -113 0
-114 0 -22 128 c-12 70 -23 133 -22 140 0 8 19 12 59 12 l59 0 35 -62z m207
15 c24 -27 78 -85 121 -130 42 -45 80 -86 84 -92 4 -8 -26 -11 -97 -11 l-104
0 -22 43 c-12 23 -46 86 -76 140 l-54 97 52 0 c51 0 55 -2 96 -47z m-1040
-395 c-1 -131 -41 -198 -121 -198 -44 0 -86 30 -105 76 -8 20 -14 69 -14 119
l0 85 120 0 120 0 0 -82z m320 -8 c0 -61 -5 -101 -15 -120 -38 -73 -123 -94
-175 -42 -36 36 -50 87 -50 180 l0 72 120 0 120 0 0 -90z m322 -10 c-3 -77 -8
-101 -25 -127 -43 -63 -108 -71 -165 -19 l-37 34 -3 107 -4 106 119 -3 118 -3
-3 -95z m328 24 c0 -42 -5 -94 -12 -116 -33 -111 -170 -118 -214 -12 -8 20
-14 69 -14 119 l0 85 120 0 120 0 0 -76z m320 -13 c0 -100 -6 -124 -43 -163
-21 -23 -35 -28 -72 -28 -83 0 -125 67 -125 201 0 36 3 69 7 72 3 4 57 7 120
7 l113 0 0 -89z m-1218 -222 c39 -38 66 -49 128 -49 61 0 87 10 130 50 28 27
36 29 45 17 28 -38 88 -67 141 -67 65 0 90 9 133 49 l34 32 31 -29 c45 -42 68
-52 126 -52 60 0 112 22 141 58 l20 25 32 -31 c39 -37 75 -52 128 -52 l39 0 0
-265 0 -265 -215 0 -215 0 0 143 c0 131 -2 148 -23 188 -39 73 -78 89 -227 89
-151 0 -190 -16 -227 -90 -21 -40 -23 -59 -23 -187 l0 -143 -215 0 -215 0 2
263 3 262 50 5 c52 5 119 39 129 65 8 21 13 19 48 -16z m588 -269 c18 -18 20
-33 20 -165 l0 -145 -166 0 -166 0 4 144 c4 192 -1 186 165 186 110 0 125 -2
143 -20z"/>
<path d="M1313 2034 c-3 -8 -1 -20 4 -25 5 -5 612 -8 1574 -7 1556 3 1564 3
1564 23 0 20 -8 20 -1568 23 -1417 2 -1568 1 -1574 -14z"/>
<path d="M1317 1923 c-34 -33 -42 -33 1569 -33 1495 0 1575 1 1572 18 -3 16
-87 17 -1569 20 -861 1 -1569 -1 -1572 -5z"/>
<path d="M3025 1743 c-38 -8 -99 -58 -128 -107 -25 -40 -31 -63 -35 -126 -8
-144 32 -234 127 -282 90 -46 215 -32 284 30 61 55 93 203 68 308 -28 114
-119 185 -235 183 -34 -1 -70 -4 -81 -6z m134 -129 c32 -23 51 -74 51 -138 0
-98 -39 -156 -105 -156 -68 0 -105 55 -105 156 0 96 40 154 105 154 17 0 41
-7 54 -16z"/>
<path d="M3559 1723 c-94 -49 -137 -141 -126 -278 12 -155 101 -245 245 -245
113 0 202 67 232 174 18 67 9 200 -18 253 -60 115 -209 158 -333 96z m169
-109 c35 -24 52 -68 52 -133 0 -107 -36 -161 -105 -161 -28 0 -47 6 -58 18
-65 71 -61 230 7 277 27 19 76 19 104 -1z"/>
<path d="M1320 1475 l0 -265 65 0 65 0 0 105 0 105 85 0 85 0 0 -105 0 -105
65 0 65 0 0 265 0 265 -65 0 -65 0 0 -100 0 -100 -85 0 -85 0 0 100 0 100 -65
0 -65 0 0 -265z"/>
<path d="M1954 1683 c-19 -69 -111 -371 -129 -428 l-13 -40 65 -3 c36 -2 68
-1 71 2 3 3 10 27 17 53 l12 48 77 3 c56 2 77 -1 81 -10 2 -7 9 -32 15 -55
l11 -43 69 0 c39 0 70 3 70 8 0 4 -34 117 -75 251 -41 134 -75 250 -75 257 0
11 -20 14 -90 14 l-89 0 -17 -57z m130 -157 l23 -96 -48 0 c-56 0 -56 -2 -34
97 20 88 26 105 31 100 3 -2 15 -48 28 -101z"/>
<path d="M2360 1475 l0 -265 70 0 70 0 0 90 0 90 28 0 c25 0 32 -9 70 -85 23
-47 48 -88 56 -91 7 -3 43 -4 79 -2 l66 3 -54 98 -55 97 34 35 c39 39 51 81
44 154 -6 61 -31 95 -90 121 -39 17 -68 20 -182 20 l-136 0 0 -265z m258 139
c29 -20 29 -67 0 -94 -16 -14 -35 -20 -70 -20 l-48 0 0 65 0 65 48 0 c27 0 57
-7 70 -16z"/>
<path d="M4020 1475 l0 -265 66 0 67 0 -5 177 -5 178 18 -40 c10 -22 48 -102
84 -177 l66 -138 69 0 70 0 0 265 0 265 -65 0 -65 0 0 -82 c0 -46 5 -123 10
-172 10 -85 7 -120 -6 -80 -3 10 -40 90 -82 177 l-76 157 -73 0 -73 0 0 -265z"/>
<path d="M2037 1048 c-22 -17 -35 -78 -16 -78 8 0 21 15 29 33 31 67 90 39 90
-44 l0 -49 -48 0 c-67 0 -82 -19 -82 -98 0 -52 3 -63 22 -76 30 -21 61 -20 89
3 22 17 24 17 36 2 10 -13 12 12 13 132 0 134 -2 149 -20 167 -23 23 -86 27
-113 8z m103 -211 c0 -58 -23 -89 -63 -85 -31 3 -32 5 -35 52 -5 69 0 76 53
76 l45 0 0 -43z"/>
<path d="M2790 1043 c-17 -12 -25 -13 -28 -5 -2 7 -8 12 -13 12 -5 0 -9 -70
-9 -160 0 -136 2 -160 15 -160 13 0 15 21 15 130 0 126 1 132 25 155 13 14 30
25 38 25 32 0 37 -24 37 -167 0 -120 2 -143 15 -143 13 0 15 21 15 130 0 126
1 132 25 155 13 14 30 25 38 25 32 0 37 -24 37 -167 0 -120 2 -143 15 -143 23
0 22 291 -1 314 -20 21 -73 20 -95 0 -17 -15 -19 -15 -34 0 -21 21 -64 20 -95
-1z"/>
<path d="M3620 1040 c-23 -23 -27 -70 -6 -70 7 0 16 13 19 30 8 38 48 51 77
25 15 -13 20 -31 20 -67 l0 -48 -49 0 c-68 0 -81 -15 -81 -95 0 -55 3 -66 22
-79 30 -21 58 -20 88 3 22 18 25 18 37 3 11 -14 13 9 11 136 -3 139 -5 155
-22 168 -29 21 -92 18 -116 -6z m110 -203 c0 -51 -33 -91 -72 -85 -20 3 -23 9
-26 52 -5 69 0 76 53 76 l45 0 0 -43z"/>
<path d="M1320 890 c0 -136 2 -160 15 -160 12 0 15 14 15 69 0 39 4 72 9 76 6
3 26 -28 47 -70 26 -52 43 -75 55 -75 15 0 11 13 -26 87 -25 47 -45 91 -45 97
0 7 16 36 35 66 38 61 41 70 21 70 -7 0 -32 -30 -55 -67 l-41 -68 0 68 c0 53
-3 67 -15 67 -13 0 -15 -24 -15 -160z"/>
<path d="M4330 890 l0 -160 60 0 c47 0 60 3 60 15 0 11 -12 15 -45 15 l-45 0
0 145 c0 122 -2 145 -15 145 -13 0 -15 -24 -15 -160z"/>
</g>
</svg>
